<?xml version="1.0" encoding="UTF-8"?>
<!DOCTYPE svg PUBLIC "-//W3C//DTD SVG 1.1//EN" "http://www.w3.org/Graphics/SVG/1.1/DTD/svg11.dtd">
<!-- Creator: CorelDRAW 2019 (64-Bit) -->
<svg xmlns="http://www.w3.org/2000/svg" xml:space="preserve" width="136mm" height="136mm" version="1.1" style="shape-rendering:geometricPrecision; text-rendering:geometricPrecision; image-rendering:optimizeQuality; fill-rule:evenodd; clip-rule:evenodd"
viewBox="0 0 13600 13600"
 xmlns:xlink="http://www.w3.org/1999/xlink"
 xmlns:xodm="http://www.corel.com/coreldraw/odm/2003">
 <defs>
  <style type="text/css">
   <![CDATA[
    .fil0 {fill:#FDF9A0;fill-rule:nonzero}
   ]]>
  </style>
 </defs>
 <g id="Capa_x0020_1">
  <metadata id="CorelCorpID_0Corel-Layer"/>
  <g id="_1289735552">
   <path class="fil0" d="M8089.26 6807.2c0,716.03 -580.43,1296.46 -1296.46,1296.46 -716.03,0 -1296.46,-580.43 -1296.46,-1296.46 0,-716.03 580.43,-1296.46 1296.46,-1296.46 716.03,0 1296.46,580.43 1296.46,1296.46zm0 0z"/>
   <path class="fil0" d="M9824.76 4513.38c-62.32,-168.88 -161.74,-321.73 -290.94,-447.21 -125.47,-129.19 -278.23,-228.61 -447.21,-290.94 -137.05,-53.23 -342.92,-116.58 -722.13,-133.85 -410.21,-18.7 -533.2,-22.74 -1571.69,-22.74 -1038.59,0 -1161.58,3.93 -1571.69,22.64 -379.2,17.36 -585.18,80.72 -722.13,133.94 -168.98,62.33 -321.84,161.75 -447.21,290.94 -129.19,125.47 -228.61,278.23 -291.04,447.21 -53.23,137.05 -116.58,343.03 -133.85,722.23 -18.7,410.11 -22.74,533.1 -22.74,1571.69 0,1038.49 4.03,1161.48 22.74,1571.69 17.26,379.2 80.62,585.08 133.85,722.13 62.42,168.98 161.74,321.73 290.94,447.21 125.47,129.19 278.23,228.62 447.21,290.94 137.05,53.33 343.03,116.69 722.23,133.94 410.11,18.71 532.99,22.64 1571.58,22.64 1038.7,0 1161.68,-3.93 1571.69,-22.64 379.2,-17.25 585.19,-80.61 722.23,-133.94 339.2,-130.84 607.3,-398.94 738.14,-738.14 53.23,-137.05 116.58,-342.93 133.94,-722.13 18.71,-410.21 22.64,-533.2 22.64,-1571.69 0,-1038.6 -3.93,-1161.59 -22.64,-1571.69 -17.25,-379.2 -80.62,-585.19 -133.94,-722.23l0.02 0zm-3031.96 4291.01c-1103.09,0 -1997.3,-894.1 -1997.3,-1997.19 0,-1103.09 894.21,-1997.19 1997.3,-1997.19 1102.98,0 1997.19,894.1 1997.19,1997.19 0,1103.09 -894.21,1997.19 -1997.19,1997.19zm2076.15 -3606.6c-257.76,0 -466.74,-208.98 -466.74,-466.74 0,-257.76 208.98,-466.74 466.74,-466.74 257.76,0 466.74,208.98 466.74,466.74 -0.1,257.76 -208.98,466.74 -466.74,466.74zm0 0z"/>
   <path class="fil0" d="M6792.8 33.86c-3740.24,0 -6773.34,3033.1 -6773.34,6773.34 0,3740.24 3033.1,6773.34 6773.34,6773.34 3740.24,0 6773.34,-3033.1 6773.34,-6773.34 0,-3740.24 -3033.1,-6773.34 -6773.34,-6773.34zm3865.92 8376.87c-18.81,414.03 -84.65,696.7 -180.77,944.13 -202.05,522.45 -615.05,935.44 -1137.5,1137.5 -247.32,96.12 -530.1,161.85 -944.03,180.77 -414.76,18.91 -547.25,23.46 -1603.52,23.46 -1056.37,0 -1188.77,-4.55 -1603.63,-23.46 -413.92,-18.92 -696.7,-84.65 -944.02,-180.77 -259.62,-97.66 -494.65,-250.73 -688.95,-448.66 -197.82,-194.19 -350.88,-429.33 -448.56,-688.84 -96.12,-247.32 -161.95,-530.1 -180.76,-944.03 -19.12,-414.86 -23.57,-547.36 -23.57,-1603.62 0,-1056.27 4.45,-1188.77 23.46,-1603.53 18.81,-414.03 84.54,-696.7 180.66,-944.13 97.67,-259.52 250.84,-494.65 448.76,-688.85 194.2,-197.91 429.33,-350.98 688.85,-448.65 247.42,-96.12 530.1,-161.85 944.13,-180.77 414.76,-18.91 547.25,-23.46 1603.52,-23.46 1056.27,0 1188.77,4.55 1603.53,23.57 414.03,18.81 696.7,84.54 944.13,180.55 259.52,97.67 494.65,250.84 688.95,448.76 197.82,194.3 350.99,429.33 448.55,688.84 96.23,247.43 161.96,530.1 180.87,944.14 18.92,414.75 23.36,547.25 23.36,1603.52 0,1056.27 -4.45,1188.77 -23.46,1603.53zm0 0z"/>
  </g>
 </g>
</svg>
