<?xml version="1.0" encoding="UTF-8"?>
<!DOCTYPE svg PUBLIC "-//W3C//DTD SVG 1.1//EN" "http://www.w3.org/Graphics/SVG/1.1/DTD/svg11.dtd">
<!-- Creator: CorelDRAW 2019 (64-Bit) -->
<svg xmlns="http://www.w3.org/2000/svg" xml:space="preserve" width="136mm" height="136mm" version="1.1" style="shape-rendering:geometricPrecision; text-rendering:geometricPrecision; image-rendering:optimizeQuality; fill-rule:evenodd; clip-rule:evenodd"
viewBox="0 0 13600 13600"
 xmlns:xlink="http://www.w3.org/1999/xlink"
 xmlns:xodm="http://www.corel.com/coreldraw/odm/2003">
 <defs>
  <style type="text/css">
   <![CDATA[
    .fil0 {fill:#FDF9A0;fill-rule:nonzero}
   ]]>
  </style>
 </defs>
 <g id="Capa_x0020_1">
  <metadata id="CorelCorpID_0Corel-Layer"/>
  <path class="fil0" d="M6800 26.67c-3722.69,0 -6773.33,3050.64 -6773.33,6773.33 0,3722.69 3050.65,6773.33 6773.33,6773.33 3722.68,0 6773.33,-3050.65 6773.33,-6773.33 0,-3722.68 -3050.64,-6773.33 -6773.33,-6773.33zm3405.16 9614.93c-63.47,142.93 -214.29,230.21 -365.1,230.21 -55.56,0 -111.13,-15.9 -158.75,-39.69 -1976.44,-904.88 -4238.65,-1174.78 -6365.9,-746.13 -214.29,39.69 -420.66,-95.25 -468.29,-317.53 -39.71,-214.34 103.19,-420.66 317.47,-460.4 2286,-460.35 4722.81,-174.6 6842.13,801.69 198.44,95.29 285.81,325.5 198.44,531.85zm825.55 -1809.72c-63.53,150.81 -206.38,230.16 -357.19,230.16 -55.56,0 -111.13,-7.94 -166.71,-31.72 -2349.47,-1079.5 -5040.29,-1397 -7580.31,-889 -214.34,39.69 -420.66,-103.19 -460.4,-317.53 -47.63,-214.29 95.25,-420.66 309.56,-468.29 2698.78,-531.84 5564.19,-198.44 8064.53,952.5 198.46,95.25 285.75,325.44 190.52,523.88zm468.26 -1571.63c-55.56,0 -111.1,-7.94 -166.66,-31.78 -2722.56,-1254.1 -5842.03,-1627.19 -8778.88,-1039.81 -214.34,47.63 -420.71,-95.25 -468.34,-309.56 -39.69,-214.29 103.19,-428.6 317.53,-468.29 3095.63,-619.15 6389.69,-230.19 9263.07,1095.38 198.44,87.31 285.75,325.41 198.44,523.85 -71.47,150.81 -214.32,230.21 -365.16,230.21z"/>
 </g>
</svg>
