<?xml version="1.0" encoding="UTF-8"?>
<!DOCTYPE svg PUBLIC "-//W3C//DTD SVG 1.1//EN" "http://www.w3.org/Graphics/SVG/1.1/DTD/svg11.dtd">
<!-- Creator: CorelDRAW 2019 (64-Bit) -->
<svg xmlns="http://www.w3.org/2000/svg" xml:space="preserve" width="136mm" height="136mm" version="1.1" style="shape-rendering:geometricPrecision; text-rendering:geometricPrecision; image-rendering:optimizeQuality; fill-rule:evenodd; clip-rule:evenodd"
viewBox="0 0 13600 13600"
 xmlns:xlink="http://www.w3.org/1999/xlink"
 xmlns:xodm="http://www.corel.com/coreldraw/odm/2003">
 <defs>
  <style type="text/css">
   <![CDATA[
    .fil0 {fill:#FDF9A0;fill-rule:nonzero}
   ]]>
  </style>
 </defs>
 <g id="Capa_x0020_1">
  <metadata id="CorelCorpID_0Corel-Layer"/>
  <g id="_1098736880">
   <path class="fil0" d="M5949.13 8076.17l2203.28 -1268.97 -2203.28 -1268.97 0 2537.94zm0 0z"/>
   <path class="fil0" d="M6792.8 33.85c-3740.24,0 -6773.35,3033.11 -6773.35,6773.35 0,3740.24 3033.11,6773.35 6773.35,6773.35 3740.24,0 6773.35,-3033.11 6773.35,-6773.35 0,-3740.24 -3033.11,-6773.35 -6773.35,-6773.35zm4232.31 6780.27c0,0 0,1373.67 -174.25,2036.06 -97.67,362.56 -383.55,648.43 -746.11,746 -662.39,174.36 -3311.95,174.36 -3311.95,174.36 0,0 -2642.64,0 -3311.95,-181.28 -362.56,-97.57 -648.44,-383.55 -746.11,-746.11 -174.36,-655.36 -174.36,-2035.96 -174.36,-2035.96 0,0 0,-1373.56 174.36,-2035.95 97.57,-362.57 390.47,-655.47 746.11,-753.03 662.39,-174.37 3311.95,-174.37 3311.95,-174.37 0,0 2649.56,0 3311.95,181.29 362.56,97.57 648.44,383.54 746.11,746.11 181.28,662.38 174.25,2042.88 174.25,2042.88l0 0zm0 0z"/>
  </g>
 </g>
</svg>
